<svg><defs><symbol xmlns="http://www.w3.org/2000/svg" viewBox="0 0 438.536 438.536" id="icon-twitter"><path d="M414.41 24.123C398.333 8.042 378.963 0 356.315 0H82.228C59.58 0 40.21 8.042 24.126 24.123 8.045 40.207.003 59.576.003 82.225v274.084c0 22.647 8.042 42.018 24.123 58.102 16.084 16.084 35.454 24.126 58.102 24.126h274.084c22.648 0 42.018-8.042 58.095-24.126 16.084-16.084 24.126-35.454 24.126-58.102V82.225c-.001-22.649-8.043-42.021-24.123-58.102zm-78.939 144.612c.191 1.713.288 4.278.288 7.71 0 15.989-2.334 32.025-6.995 48.104-4.661 16.087-11.8 31.504-21.416 46.254-9.606 14.749-21.074 27.791-34.396 39.115-13.325 11.32-29.311 20.365-47.968 27.117-18.648 6.762-38.637 10.143-59.953 10.143-33.116 0-63.76-8.952-91.931-26.836 4.568.568 9.329.855 14.275.855 27.6 0 52.439-8.565 74.519-25.7-12.941-.185-24.506-4.179-34.688-11.991-10.185-7.803-17.273-17.699-21.271-29.691 4.947.76 8.658 1.137 11.132 1.137 4.187 0 9.042-.76 14.56-2.279-13.894-2.669-25.598-9.562-35.115-20.697-9.519-11.136-14.277-23.84-14.277-38.114v-.571c10.085 4.755 19.602 7.229 28.549 7.422-17.321-11.613-25.981-28.265-25.981-49.963 0-10.66 2.758-20.747 8.278-30.264 15.035 18.464 33.311 33.213 54.816 44.252 21.507 11.038 44.54 17.227 69.092 18.558-.95-3.616-1.427-8.186-1.427-13.704 0-16.562 5.853-30.692 17.56-42.399 11.703-11.706 25.837-17.561 42.394-17.561 17.515 0 32.079 6.283 43.688 18.846 13.134-2.474 25.892-7.33 38.26-14.56-4.757 14.652-13.613 25.788-26.55 33.402 12.368-1.716 23.88-4.95 34.537-9.708-7.993 12.181-17.989 22.554-29.98 31.123z"/></symbol><symbol xmlns="http://www.w3.org/2000/svg" viewBox="0 0 512 512" id="icon-facebook"><path d="M437 0H75C33.648 0 0 33.648 0 75v362c0 41.352 33.648 75 75 75h151V331h-60v-90h60v-61c0-49.629 40.371-90 90-90h91v90h-91v61h91l-15 90h-76v181h121c41.352 0 75-33.648 75-75V75c0-41.352-33.648-75-75-75zm0 0"/></symbol><symbol xmlns="http://www.w3.org/2000/svg" viewBox="0 0 510 510" id="google-plus-logo"><path d="M234.6 175.95c0-25.5-15.3-76.5-53.55-76.5-15.3 0-33.15 10.2-33.15 43.35 0 30.6 15.3 73.95 51 73.95 0 0 35.7-2.55 35.7-40.8zM219.3 300.9h-7.65c-7.65 0-30.6 2.55-45.9 7.649C147.9 313.65 127.5 326.4 127.5 351.9c0 28.05 25.5 56.1 76.5 56.1 38.25 0 61.2-25.5 61.2-51 0-17.85-12.75-30.6-45.9-56.1zM459 0H51C22.95 0 0 22.95 0 51v408c0 28.05 22.95 51 51 51h408c28.05 0 51-22.95 51-51V51c0-28.05-22.95-51-51-51zM181.05 438.6c-71.4 0-104.55-40.8-104.55-76.5 0-12.75 2.55-40.8 38.25-61.199 20.4-12.75 45.9-20.4 79.05-22.95-5.1-5.101-7.65-12.75-7.65-25.5 0-5.1 0-7.65 2.55-12.75h-10.2c-51 0-81.6-38.25-81.6-76.5 0-43.35 33.15-91.8 104.55-91.8h107.1l-7.649 7.65L283.05 96.9l-2.55 2.55h-17.85c10.199 10.2 22.949 28.05 22.949 56.1 0 35.7-17.85 53.55-40.8 68.85-5.1 2.55-10.2 10.2-10.2 17.85s5.1 12.75 10.2 15.3c2.55 2.55 7.65 5.101 12.75 7.65 20.4 15.3 48.45 33.149 48.45 73.95.001 45.9-33.149 99.45-124.949 99.45zM433.5 255h-51v51H357v-51h-51v-25.5h51v-51h25.5v51h51V255z"/></symbol><symbol xmlns="http://www.w3.org/2000/svg" viewBox="0 0 438.557 438.557" id="icon-pinterest"><path d="M414.418 24.128C398.341 8.047 378.972.005 356.323.005V0H82.239C59.591 0 40.222 8.044 24.138 24.125 8.057 40.209.015 59.578.015 82.226v274.089c0 22.647 8.042 42.018 24.123 58.095 16.084 16.084 35.454 24.126 58.102 24.126h52.25c-3.239-29.304-2.573-53.481 1.997-72.512l27.978-118.198c-4.568-9.329-6.854-20.841-6.854-34.543 0-15.796 4.045-29.075 12.137-39.827 8.086-10.757 17.937-16.134 29.547-16.134 9.326 0 16.512 3.092 21.554 9.276 5.041 6.189 7.566 13.945 7.566 23.272 0 5.898-1.047 12.99-3.138 21.267-2.098 8.285-4.9 17.99-8.422 29.126-3.521 11.135-6.042 19.934-7.566 26.404-2.663 11.424-.476 21.27 6.567 29.555 7.042 8.274 16.272 12.422 27.696 12.422 20.177 0 36.686-11.231 49.539-33.694 12.847-22.456 19.267-49.676 19.267-81.649 0-24.551-7.946-44.54-23.846-59.955-15.886-15.418-38.013-23.128-66.376-23.128-31.78 0-57.526 10.138-77.228 30.407-19.701 20.271-29.552 44.684-29.552 73.233 0 16.748 4.761 31.025 14.277 42.828 3.234 3.614 4.283 7.615 3.14 11.995-.953 3.237-2.38 9.041-4.283 17.412-.763 2.669-2.141 4.473-4.141 5.428-2.002.951-4.237.951-6.711 0-14.655-6.088-25.747-16.563-33.263-31.409-7.517-14.842-11.276-31.977-11.276-51.387 0-12.564 2.047-25.179 6.14-37.831 4.093-12.66 10.422-24.841 18.986-36.545 8.564-11.709 18.792-22.129 30.69-31.267 11.894-9.132 26.458-16.413 43.682-21.838 17.222-5.424 35.736-8.137 55.524-8.137 20.181 0 38.927 3.48 56.25 10.426 17.319 6.945 31.833 16.175 43.544 27.69 11.703 11.516 20.889 24.744 27.545 39.687 6.666 14.938 9.996 30.406 9.996 46.392 0 43.019-10.896 78.564-32.688 106.637-21.793 28.075-49.916 42.116-84.363 42.116-11.43 0-22.128-2.666-32.124-7.994-9.991-5.328-16.986-11.704-20.984-19.13-8.374 33.312-13.417 53.197-15.131 59.669-4.377 16.751-14.655 36.733-30.833 59.956H356.32c22.647 0 42.017-8.042 58.095-24.126 16.084-16.084 24.126-35.454 24.126-58.102v-274.1c0-22.646-8.042-42.016-24.123-58.1z"/></symbol><symbol xmlns="http://www.w3.org/2000/svg" viewBox="0 0 510 510" id="icon-linkedin"><path d="M459 0H51C22.95 0 0 22.95 0 51v408c0 28.05 22.95 51 51 51h408c28.05 0 51-22.95 51-51V51c0-28.05-22.95-51-51-51zM153 433.5H76.5V204H153v229.5zm-38.25-272.85c-25.5 0-45.9-20.4-45.9-45.9s20.4-45.9 45.9-45.9 45.9 20.4 45.9 45.9-20.4 45.9-45.9 45.9zM433.5 433.5H357V298.35c0-20.399-17.85-38.25-38.25-38.25s-38.25 17.851-38.25 38.25V433.5H204V204h76.5v30.6c12.75-20.4 40.8-35.7 63.75-35.7 48.45 0 89.25 40.8 89.25 89.25V433.5z"/></symbol><symbol xmlns="http://www.w3.org/2000/svg" viewBox="0 0 612.009 612.01" id="icon-zoom"><path d="M354.252 237.4H277.81v-76.576c0-10.56-8.551-19.149-19.111-19.149s-19.11 8.57-19.11 19.149V237.4h-76.424c-10.56 0-19.11 3.482-19.11 14.061s8.551 24.237 19.11 24.237h76.443v76.558c0 10.579 8.551 19.148 19.11 19.148 10.56 0 19.111-8.569 19.111-19.148v-76.558h76.443c10.56 0 19.11-8.57 19.11-19.149-.019-10.578-8.57-19.149-19.13-19.149zm251.94 341.314L448.18 423.228c41.377-44.955 66.801-104.41 66.801-169.834C514.981 113.439 399.705 0 257.494 0S.007 113.439.007 253.393s115.276 253.393 257.487 253.393c61.445 0 117.801-21.253 162.068-56.586l158.624 156.099c7.729 7.614 20.277 7.614 28.006 0a19.276 19.276 0 000-27.585zM257.494 467.8c-120.326 0-217.869-95.993-217.869-214.407S137.168 38.986 257.494 38.986c120.327 0 217.869 95.993 217.869 214.407S377.821 467.8 257.494 467.8z"/></symbol><symbol xmlns="http://www.w3.org/2000/svg" viewBox="0 0 262.382 262.382" id="icon-linked"><path d="M246.392 16.003C236.072 5.684 222.35 0 207.756 0c-14.595 0-28.316 5.684-38.637 16.003l-33.061 33.061c-19.503 19.504-21.138 50.198-4.93 71.595l-10.453 10.452c-9.442-7.174-20.902-11.065-32.965-11.065-14.594 0-28.315 5.683-38.636 16.002l-33.061 33.061C5.694 179.429.01 193.15.011 207.745c0 14.595 5.683 28.316 16.002 38.636 10.32 10.319 24.042 16.003 38.636 16.003 14.595 0 28.315-5.684 38.636-16.003l33.06-33.061c10.32-10.32 16.004-24.041 16.004-38.636 0-12.063-3.893-23.522-11.066-32.965l10.446-10.445c9.442 7.174 20.902 11.065 32.965 11.066 14.595-.001 28.316-5.684 38.637-16.003l33.061-33.062c21.302-21.304 21.302-55.968 0-77.272zM127.35 174.683c0 10.588-4.123 20.542-11.61 28.028l-33.061 33.062c-7.486 7.486-17.44 11.609-28.028 11.609-10.588 0-20.542-4.123-28.028-11.61-7.487-7.486-11.609-17.44-11.609-28.028 0-10.588 4.122-20.542 11.609-28.028l33.06-33.061c7.487-7.487 17.441-11.609 28.029-11.609 8.042 0 15.715 2.384 22.223 6.808L96.98 154.807a7.5 7.5 0 1010.608 10.607l12.954-12.954c4.424 6.508 6.808 14.181 6.808 22.223zm108.435-92.015l-33.059 33.062c-7.487 7.486-17.441 11.609-28.03 11.609-8.042 0-15.716-2.385-22.223-6.809l12.954-12.954a7.5 7.5 0 00-10.607-10.607l-12.946 12.946c-10.44-15.414-8.848-36.604 4.794-50.244l33.061-33.061c7.486-7.487 17.44-11.61 28.029-11.61 10.588 0 20.542 4.123 28.028 11.609 15.453 15.455 15.453 40.604-.001 56.059z"/></symbol><symbol xmlns="http://www.w3.org/2000/svg" viewBox="0 0 320.001 320.001" id="icon-play"><path d="M295.84 146.049l-256-144a16.026 16.026 0 00-15.904.128A15.986 15.986 0 0016 16.001v288a15.986 15.986 0 007.936 13.824A16.144 16.144 0 0032 320.001c2.688 0 5.408-.672 7.84-2.048l256-144c5.024-2.848 8.16-8.16 8.16-13.952s-3.136-11.104-8.16-13.952z"/></symbol><symbol xmlns="http://www.w3.org/2000/svg" viewBox="0 0 512 512" id="sliders-h"><path d="M496 384H160v-16c0-8.8-7.2-16-16-16h-32c-8.8 0-16 7.2-16 16v16H16c-8.8 0-16 7.2-16 16v32c0 8.8 7.2 16 16 16h80v16c0 8.8 7.2 16 16 16h32c8.8 0 16-7.2 16-16v-16h336c8.8 0 16-7.2 16-16v-32c0-8.8-7.2-16-16-16zm0-160h-80v-16c0-8.8-7.2-16-16-16h-32c-8.8 0-16 7.2-16 16v16H16c-8.8 0-16 7.2-16 16v32c0 8.8 7.2 16 16 16h336v16c0 8.8 7.2 16 16 16h32c8.8 0 16-7.2 16-16v-16h80c8.8 0 16-7.2 16-16v-32c0-8.8-7.2-16-16-16zm0-160H288V48c0-8.8-7.2-16-16-16h-32c-8.8 0-16 7.2-16 16v16H16C7.2 64 0 71.2 0 80v32c0 8.8 7.2 16 16 16h208v16c0 8.8 7.2 16 16 16h32c8.8 0 16-7.2 16-16v-16h208c8.8 0 16-7.2 16-16V80c0-8.8-7.2-16-16-16z"/></symbol><symbol xmlns="http://www.w3.org/2000/svg" viewBox="0 0 349.078 349.078" id="icon-quotation"><path d="M150.299 26.634v58.25c0 7.9-6.404 14.301-14.304 14.301-28.186 0-43.518 28.909-45.643 85.966h45.643c7.9 0 14.304 6.407 14.304 14.304v122.992c0 7.896-6.404 14.298-14.304 14.298H14.301C6.398 336.745 0 330.338 0 322.447V199.455c0-27.352 2.754-52.452 8.183-74.611 5.568-22.721 14.115-42.587 25.396-59.048 11.608-16.917 26.128-30.192 43.16-39.44C93.886 17.052 113.826 12.333 136 12.333c7.895 0 14.299 6.401 14.299 14.301zm184.474 72.552c7.896 0 14.305-6.407 14.305-14.301v-58.25c0-7.9-6.408-14.301-14.305-14.301-22.165 0-42.108 4.72-59.249 14.023-17.035 9.248-31.563 22.523-43.173 39.44-11.277 16.461-19.824 36.328-25.393 59.054-5.426 22.166-8.18 47.266-8.18 74.605v122.992c0 7.896 6.406 14.298 14.304 14.298h121.69c7.896 0 14.299-6.407 14.299-14.298V199.455c0-7.896-6.402-14.304-14.299-14.304H289.78c2.093-57.056 17.201-85.965 44.993-85.965z"/></symbol><symbol xmlns="http://www.w3.org/2000/svg" xmlns:xlink="http://www.w3.org/1999/xlink" id="icon-heading"><path d="M197.02 9.37c5.009 1.218 11.98 1.736 11.98 1.736-6.279.637-10.311 1.55-12.413 2.07-1.709.418-2.866-1.271-3.238-1.918h-5.726c1.009.374 2.379 1.047 4.184 2.25 4.751 3.164 7.372 7.395 7.69 8.491 0 0-2.996-3.531-8.296-5.112 0 0-4.261-.854-1.842-3.928 0 0-1.037-1.345-3.28-1.761-.116.613-.61 1.074-1.212 1.114v1.013s2.188.639 1.699 2.586c-.491 1.949-1.556 2.648-1.815 5.571 0 0-1.123-1.736-1.268-4.474-.142-2.739 1.125-3.561 1.125-3.561v-1.143c-.65-.092-1.152-.67-1.152-1.381s.502-1.291 1.152-1.383v-.989s-1.267-.822-1.125-3.561c.145-2.739 1.268-4.475 1.268-4.475.259 2.922 1.324 3.623 1.815 5.571.489 1.947-1.699 2.587-1.699 2.587v.86c.649.045 1.167.581 1.226 1.264 2.234-.421 3.266-1.759 3.266-1.759-2.419-3.075 1.842-3.927 1.842-3.927 5.3-1.581 8.296-5.112 8.296-5.112-.318 1.096-2.939 5.326-7.69 8.491-1.857 1.237-3.251 1.912-4.267 2.281h5.826c1.352-2.185 3.654-1.401 3.654-1.401zM0 9.85h182.885v1.992H0V9.85z"/></symbol><symbol xmlns="http://www.w3.org/2000/svg" viewBox="0 0 24 24" id="icon-send"><path d="M24 0l-6 22-8.129-7.239 7.802-8.234-10.458 7.227L0 12 24 0zM9 16.668V24l3.258-4.431L9 16.668z"/></symbol><symbol xmlns="http://www.w3.org/2000/svg" xmlns:xlink="http://www.w3.org/1999/xlink" id="icon-heading2"><path d="M257.174 15.475c-.909.171-1.802.358-2.65.563 0 0-1.774.414-3.386-.563h-5.894c.762.485 1.606 1.066 2.545 1.682 6.138 4.033 9.536 9.445 9.947 10.842 0 0-3.859-4.474-10.705-6.489 0 0-5.481-1.084-2.356-5.001 0 0-.387-.496-1.18-1.034h-3.37c-.212.227-.545.378-1.11.402v-.01c-.503-.044-.836-.186-1.061-.392H33.736v-2.54h204.048c.211-.315.582-.529 1.231-.587v-.011c0 .031.462.259.871.598h2.987c1.199-.654 1.754-1.389 1.754-1.389-3.125-3.916 2.38-4.969 2.38-4.969C253.853 4.562 257.724.13 257.724.13c-.411 1.395-3.797 6.916-9.935 10.948-1.343.881-2.494 1.364-3.484 1.857h6.204c.745-.973 1.923-1.817 3.455-1.447 1.714.417 4.427.925 8.228 1.447H270v2.54h-12.826zm-18.159-4.582s-1.876-1.047-1.692-4.537c.187-3.489 1.398-5.699 1.398-5.699.335 3.724 1.759 4.614 2.393 7.095.632 2.48-2.099 3.294-2.099 3.294v-.153zm-207.861.153s-2.86-.814-2.228-3.294c.633-2.481 1.976-3.371 2.312-7.095 0 0 1.361 2.21 1.547 5.699.185 3.49-1.631 4.537-1.631 4.537v.153zm-1.555 2.71c.151-.78.264-1.367 1.555-1.419v.011c1.291.116 1.489.853 1.489 1.76 0 .904-.198 1.644-1.489 1.759v.01c-1.291-.056-1.497-.743-1.573-1.612-2.885.535-4.208 2.238-4.208 2.238 3.125 3.917-2.38 4.994-2.38 4.994-6.846 2.015-10.717 6.502-10.717 6.502.411-1.397 3.797-6.809 9.935-10.842 2.399-1.574 4.2-2.953 5.513-2.953h-.107c-1.304-1.269-3.076-1.595-5.406-3.126-6.139-4.032-9.526-9.684-9.936-11.08 0 0 3.87 4.498 10.716 6.514 0 0 5.501 1.085 2.376 5.001 0 0 1.334 1.714 4.232 2.243zm-9.38.448h-.022c-1.747 2.54-4.721 1.899-4.721 1.899C9.005 14.55 0 14.005 0 14.005c8.111-.813 13.32-1.843 16.036-2.505 2.207-.534 3.702 1.435 4.183 2.704zm10.935 2.924s1.813 1.049 1.628 4.537c-.187 3.489-1.461 5.699-1.461 5.699-.335-3.721-1.717-4.613-2.35-7.096-.633-2.48 2.183-3.295 2.183-3.295v.155zm207.861-.155s2.797.815 2.164 3.295c-.633 2.483-2.04 3.375-2.374 7.096 0 0-1.319-2.21-1.506-5.699-.185-3.488 1.716-4.537 1.716-4.537v-.155z"/></symbol><symbol xmlns="http://www.w3.org/2000/svg" viewBox="0 0 350 350" id="man-user"><path d="M175 171.173c38.914 0 70.463-38.318 70.463-85.586C245.463 38.318 235.105 0 175 0s-70.465 38.318-70.465 85.587c0 47.268 31.549 85.586 70.465 85.586zM41.909 301.853c-.012-2.882-.024-.812 0 0zm266.176 2.251c.038-.789.013-5.474 0 0z"/><path d="M307.935 298.397c-1.305-82.342-12.059-105.805-94.352-120.657 0 0-11.584 14.761-38.584 14.761s-38.586-14.761-38.586-14.761C55.018 192.43 43.61 215.545 42.11 295.722c-.123 6.547-.18 6.891-.202 6.131.005 1.424.011 4.058.011 8.651 0 0 19.592 39.496 133.08 39.496 113.486 0 133.08-39.496 133.08-39.496 0-2.951.002-5.003.005-6.399-.022.47-.066-.441-.149-5.708z"/></symbol><symbol xmlns="http://www.w3.org/2000/svg" viewBox="0 0 488.85 488.85" id="eye"><path d="M244.425 98.725c-93.4 0-178.1 51.1-240.6 134.1-5.1 6.8-5.1 16.3 0 23.1 62.5 83.1 147.2 134.2 240.6 134.2s178.1-51.1 240.6-134.1c5.1-6.8 5.1-16.3 0-23.1-62.5-83.1-147.2-134.2-240.6-134.2zm6.7 248.3c-62 3.9-113.2-47.2-109.3-109.3 3.2-51.2 44.7-92.7 95.9-95.9 62-3.9 113.2 47.2 109.3 109.3-3.3 51.1-44.8 92.6-95.9 95.9zm-3.1-47.4c-33.4 2.1-61-25.4-58.8-58.8 1.7-27.6 24.1-49.9 51.7-51.7 33.4-2.1 61 25.4 58.8 58.8-1.8 27.7-24.2 50-51.7 51.7z"/></symbol><symbol xmlns="http://www.w3.org/2000/svg" viewBox="0 0 511.626 511.626" id="comment"><path d="M301.927 327.605c30.926-13.038 55.34-30.785 73.23-53.248 17.888-22.458 26.833-46.915 26.833-73.372 0-26.458-8.945-50.917-26.84-73.376-17.888-22.459-42.298-40.208-73.228-53.249-30.93-13.039-64.571-19.556-100.928-19.556-36.354 0-69.995 6.521-100.927 19.556-30.929 13.04-55.34 30.789-73.229 53.249C8.947 150.072 0 174.527 0 200.986c0 22.648 6.767 43.975 20.28 63.96 13.512 19.981 32.071 36.829 55.671 50.531-1.902 4.572-3.853 8.754-5.852 12.566a72.375 72.375 0 01-7.139 10.991 984.53 984.53 0 00-6.423 8.275c-1.523 1.998-3.997 4.812-7.425 8.422-3.427 3.617-5.617 5.996-6.567 7.135 0-.191-.381.24-1.143 1.287-.763 1.047-1.191 1.52-1.285 1.431-.096-.103-.477.373-1.143 1.42l-1 1.571-.715 1.423a6.114 6.114 0 00-.57 1.712c-.096.567-.144 1.19-.144 1.854s.094 1.28.288 1.854c.381 2.471 1.475 4.466 3.283 5.996 1.807 1.52 3.756 2.279 5.852 2.279h.857c9.515-1.332 17.701-2.854 24.552-4.569 29.312-7.61 55.771-19.797 79.372-36.545 17.129 3.046 33.879 4.568 50.247 4.568 36.357.013 70.002-6.502 100.931-19.542z"/><path d="M491.354 338.166c13.518-19.889 20.272-41.247 20.272-64.09 0-23.414-7.146-45.316-21.416-65.68-14.277-20.362-33.694-37.305-58.245-50.819 4.374 14.274 6.563 28.739 6.563 43.398 0 25.503-6.368 49.676-19.129 72.519-12.752 22.836-31.025 43.01-54.816 60.524-22.08 15.988-47.205 28.261-75.377 36.829-28.164 8.562-57.573 12.848-88.218 12.848-5.708 0-14.084-.377-25.122-1.137 38.256 25.119 83.177 37.685 134.756 37.685 16.371 0 33.119-1.526 50.251-4.571 23.6 16.755 50.06 28.931 79.37 36.549 6.852 1.718 15.037 3.237 24.554 4.568 2.283.191 4.381-.476 6.283-1.999 1.903-1.522 3.142-3.61 3.71-6.272-.089-1.143 0-1.77.287-1.861.281-.09.233-.712-.144-1.852-.376-1.144-.568-1.715-.568-1.715l-.712-1.424a13.68 13.68 0 00-.999-1.567c-.476-.66-.855-1.143-1.143-1.427-.28-.284-.705-.763-1.28-1.424-.568-.66-.951-1.092-1.143-1.283-.951-1.143-3.139-3.521-6.564-7.139-3.429-3.613-5.899-6.42-7.422-8.418a867.888 867.888 0 00-6.424-8.282 72.209 72.209 0 01-7.139-10.991c-1.998-3.806-3.949-7.995-5.852-12.56 23.602-13.716 42.156-30.513 55.667-50.409z"/></symbol><symbol xmlns="http://www.w3.org/2000/svg" viewBox="0 0 496 496" id="icon-plus"><path d="M488 240H256V8a8 8 0 00-16 0v232H8a8 8 0 000 16h232v232a8 8 0 0016 0V256h232a8 8 0 000-16z"/></symbol><symbol xmlns="http://www.w3.org/2000/svg" viewBox="0 0 492.004 492.004" id="next-arrow"><path d="M382.678 226.804L163.73 7.86C158.666 2.792 151.906 0 144.698 0s-13.968 2.792-19.032 7.86l-16.124 16.12c-10.492 10.504-10.492 27.576 0 38.064L293.398 245.9l-184.06 184.06c-5.064 5.068-7.86 11.824-7.86 19.028 0 7.212 2.796 13.968 7.86 19.04l16.124 16.116c5.068 5.068 11.824 7.86 19.032 7.86s13.968-2.792 19.032-7.86L382.678 265c5.076-5.084 7.864-11.872 7.848-19.088.016-7.244-2.772-14.028-7.848-19.108z"/></symbol><symbol xmlns="http://www.w3.org/2000/svg" viewBox="0 0 492 492" id="prev-arrow"><path d="M198.608 246.104L382.664 62.04c5.068-5.056 7.856-11.816 7.856-19.024 0-7.212-2.788-13.968-7.856-19.032l-16.128-16.12C361.476 2.792 354.712 0 347.504 0s-13.964 2.792-19.028 7.864L109.328 227.008c-5.084 5.08-7.868 11.868-7.848 19.084-.02 7.248 2.76 14.028 7.848 19.112l218.944 218.932c5.064 5.072 11.82 7.864 19.032 7.864 7.208 0 13.964-2.792 19.032-7.864l16.124-16.12c10.492-10.492 10.492-27.572 0-38.06L198.608 246.104z"/></symbol><symbol xmlns="http://www.w3.org/2000/svg" viewBox="0 0 512.005 512.005" id="search"><path fill="#fff" d="M505.749 475.587l-145.6-145.6c28.203-34.837 45.184-79.104 45.184-127.317C405.333 90.926 314.41.003 202.666.003S0 90.925 0 202.669s90.923 202.667 202.667 202.667c48.213 0 92.48-16.981 127.317-45.184l145.6 145.6c4.16 4.16 9.621 6.251 15.083 6.251s10.923-2.091 15.083-6.251c8.341-8.341 8.341-21.824-.001-30.165zM202.667 362.669c-88.235 0-160-71.765-160-160s71.765-160 160-160 160 71.765 160 160-71.766 160-160 160z"/></symbol></defs></svg>