<svg xmlns="http://www.w3.org/2000/svg" width="209" height="22"><path data-name="Shape 2 copy" d="M191.807 8.49a20.434 20.434 0 01-4.267 2.28h5.826a3.17 3.17 0 013.654-1.4A90.209 90.209 0 00209 11.11a85.814 85.814 0 00-12.413 2.07c-1.709.41-2.866-1.27-3.238-1.92h-5.726a20.687 20.687 0 014.184 2.25c4.751 3.16 7.372 7.39 7.69 8.49a18.71 18.71 0 00-8.3-5.11s-4.261-.86-1.842-3.93a5.533 5.533 0 00-3.28-1.76 1.343 1.343 0 01-1.212 1.11v1.02s2.188.63 1.7 2.58-1.556 2.65-1.815 5.57a9.79 9.79 0 01-1.268-4.47c-.142-2.74 1.125-3.56 1.125-3.56V12.3a1.4 1.4 0 010-2.76v-.99s-1.267-.82-1.125-3.56a9.79 9.79 0 011.268-4.47c.259 2.92 1.324 3.62 1.815 5.57s-1.7 2.58-1.7 2.58v.86a1.358 1.358 0 011.226 1.27 5.563 5.563 0 003.266-1.76c-2.419-3.08 1.842-3.93 1.842-3.93a18.71 18.71 0 008.3-5.11c-.318 1.1-2.939 5.33-7.69 8.49zM0 9.85h182.885v1.99H0V9.85z" fill="#00c5d2" fill-rule="evenodd"/></svg>