<svg >
<defs>
  <symbol xmlns="http://www.w3.org/2000/svg" viewBox="0 0 438.536 438.536" id="icon-twitter">
    <path  d="M414.41 24.123C398.333 8.042 378.963 0 356.315 0H82.228C59.58 0 40.21 8.042 24.126 24.123 8.045 40.207.003 59.576.003 82.225v274.084c0 22.647 8.042 42.018 24.123 58.102 16.084 16.084 35.454 24.126 58.102 24.126h274.084c22.648 0 42.018-8.042 58.095-24.126 16.084-16.084 24.126-35.454 24.126-58.102V82.225c-.001-22.649-8.043-42.021-24.123-58.102zm-78.939 144.612c.191 1.713.288 4.278.288 7.71 0 15.989-2.334 32.025-6.995 48.104-4.661 16.087-11.8 31.504-21.416 46.254-9.606 14.749-21.074 27.791-34.396 39.115-13.325 11.32-29.311 20.365-47.968 27.117-18.648 6.762-38.637 10.143-59.953 10.143-33.116 0-63.76-8.952-91.931-26.836 4.568.568 9.329.855 14.275.855 27.6 0 52.439-8.565 74.519-25.7-12.941-.185-24.506-4.179-34.688-11.991-10.185-7.803-17.273-17.699-21.271-29.691 4.947.76 8.658 1.137 11.132 1.137 4.187 0 9.042-.76 14.56-2.279-13.894-2.669-25.598-9.562-35.115-20.697-9.519-11.136-14.277-23.84-14.277-38.114v-.571c10.085 4.755 19.602 7.229 28.549 7.422-17.321-11.613-25.981-28.265-25.981-49.963 0-10.66 2.758-20.747 8.278-30.264 15.035 18.464 33.311 33.213 54.816 44.252 21.507 11.038 44.54 17.227 69.092 18.558-.95-3.616-1.427-8.186-1.427-13.704 0-16.562 5.853-30.692 17.56-42.399 11.703-11.706 25.837-17.561 42.394-17.561 17.515 0 32.079 6.283 43.688 18.846 13.134-2.474 25.892-7.33 38.26-14.56-4.757 14.652-13.613 25.788-26.55 33.402 12.368-1.716 23.88-4.95 34.537-9.708-7.993 12.181-17.989 22.554-29.98 31.123z"></path>
  </symbol>
  <symbol xmlns="http://www.w3.org/2000/svg" viewBox="0 0 512 512" id="icon-facebook">
    <path  d="M437 0H75C33.648 0 0 33.648 0 75v362c0 41.352 33.648 75 75 75h151V331h-60v-90h60v-61c0-49.629 40.371-90 90-90h91v90h-91v61h91l-15 90h-76v181h121c41.352 0 75-33.648 75-75V75c0-41.352-33.648-75-75-75zm0 0">
    </path>
  </symbol>
  <symbol xmlns="http://www.w3.org/2000/svg" viewBox="0 0 510 510" id="google-plus-logo">
    <path  d="M234.6 175.95c0-25.5-15.3-76.5-53.55-76.5-15.3 0-33.15 10.2-33.15 43.35 0 30.6 15.3 73.95 51 73.95 0 0 35.7-2.55 35.7-40.8zM219.3 300.9h-7.65c-7.65 0-30.6 2.55-45.9 7.649C147.9 313.65 127.5 326.4 127.5 351.9c0 28.05 25.5 56.1 76.5 56.1 38.25 0 61.2-25.5 61.2-51 0-17.85-12.75-30.6-45.9-56.1zM459 0H51C22.95 0 0 22.95 0 51v408c0 28.05 22.95 51 51 51h408c28.05 0 51-22.95 51-51V51c0-28.05-22.95-51-51-51zM181.05 438.6c-71.4 0-104.55-40.8-104.55-76.5 0-12.75 2.55-40.8 38.25-61.199 20.4-12.75 45.9-20.4 79.05-22.95-5.1-5.101-7.65-12.75-7.65-25.5 0-5.1 0-7.65 2.55-12.75h-10.2c-51 0-81.6-38.25-81.6-76.5 0-43.35 33.15-91.8 104.55-91.8h107.1l-7.649 7.65L283.05 96.9l-2.55 2.55h-17.85c10.199 10.2 22.949 28.05 22.949 56.1 0 35.7-17.85 53.55-40.8 68.85-5.1 2.55-10.2 10.2-10.2 17.85s5.1 12.75 10.2 15.3c2.55 2.55 7.65 5.101 12.75 7.65 20.4 15.3 48.45 33.149 48.45 73.95.001 45.9-33.149 99.45-124.949 99.45zM433.5 255h-51v51H357v-51h-51v-25.5h51v-51h25.5v51h51V255z"></path>
  </symbol>
  <symbol xmlns="http://www.w3.org/2000/svg" viewBox="0 0 438.557 438.557" id="icon-pinterest">
    <path d="M414.418 24.128C398.341 8.047 378.972.005 356.323.005V0H82.239C59.591 0 40.222 8.044 24.138 24.125 8.057 40.209.015 59.578.015 82.226v274.089c0 22.647 8.042 42.018 24.123 58.095 16.084 16.084 35.454 24.126 58.102 24.126h52.25c-3.239-29.304-2.573-53.481 1.997-72.512l27.978-118.198c-4.568-9.329-6.854-20.841-6.854-34.543 0-15.796 4.045-29.075 12.137-39.827 8.086-10.757 17.937-16.134 29.547-16.134 9.326 0 16.512 3.092 21.554 9.276 5.041 6.189 7.566 13.945 7.566 23.272 0 5.898-1.047 12.99-3.138 21.267-2.098 8.285-4.9 17.99-8.422 29.126-3.521 11.135-6.042 19.934-7.566 26.404-2.663 11.424-.476 21.27 6.567 29.555 7.042 8.274 16.272 12.422 27.696 12.422 20.177 0 36.686-11.231 49.539-33.694 12.847-22.456 19.267-49.676 19.267-81.649 0-24.551-7.946-44.54-23.846-59.955-15.886-15.418-38.013-23.128-66.376-23.128-31.78 0-57.526 10.138-77.228 30.407-19.701 20.271-29.552 44.684-29.552 73.233 0 16.748 4.761 31.025 14.277 42.828 3.234 3.614 4.283 7.615 3.14 11.995-.953 3.237-2.38 9.041-4.283 17.412-.763 2.669-2.141 4.473-4.141 5.428-2.002.951-4.237.951-6.711 0-14.655-6.088-25.747-16.563-33.263-31.409-7.517-14.842-11.276-31.977-11.276-51.387 0-12.564 2.047-25.179 6.14-37.831 4.093-12.66 10.422-24.841 18.986-36.545 8.564-11.709 18.792-22.129 30.69-31.267 11.894-9.132 26.458-16.413 43.682-21.838 17.222-5.424 35.736-8.137 55.524-8.137 20.181 0 38.927 3.48 56.25 10.426 17.319 6.945 31.833 16.175 43.544 27.69 11.703 11.516 20.889 24.744 27.545 39.687 6.666 14.938 9.996 30.406 9.996 46.392 0 43.019-10.896 78.564-32.688 106.637-21.793 28.075-49.916 42.116-84.363 42.116-11.43 0-22.128-2.666-32.124-7.994-9.991-5.328-16.986-11.704-20.984-19.13-8.374 33.312-13.417 53.197-15.131 59.669-4.377 16.751-14.655 36.733-30.833 59.956H356.32c22.647 0 42.017-8.042 58.095-24.126 16.084-16.084 24.126-35.454 24.126-58.102v-274.1c0-22.646-8.042-42.016-24.123-58.1z"></path>
  </symbol>
  <symbol xmlns="http://www.w3.org/2000/svg" viewBox="0 0 510 510" id="icon-linkedin">
    <path d="M459 0H51C22.95 0 0 22.95 0 51v408c0 28.05 22.95 51 51 51h408c28.05 0 51-22.95 51-51V51c0-28.05-22.95-51-51-51zM153 433.5H76.5V204H153v229.5zm-38.25-272.85c-25.5 0-45.9-20.4-45.9-45.9s20.4-45.9 45.9-45.9 45.9 20.4 45.9 45.9-20.4 45.9-45.9 45.9zM433.5 433.5H357V298.35c0-20.399-17.85-38.25-38.25-38.25s-38.25 17.851-38.25 38.25V433.5H204V204h76.5v30.6c12.75-20.4 40.8-35.7 63.75-35.7 48.45 0 89.25 40.8 89.25 89.25V433.5z"></path>
  </symbol>
  <symbol xmlns="http://www.w3.org/2000/svg" viewBox="0 0 612.009 612.01" id="icon-zoom">
    <path d="M354.252 237.4H277.81v-76.576c0-10.56-8.551-19.149-19.111-19.149s-19.11 8.57-19.11 19.149V237.4h-76.424c-10.56 0-19.11 3.482-19.11 14.061s8.551 24.237 19.11 24.237h76.443v76.558c0 10.579 8.551 19.148 19.11 19.148 10.56 0 19.111-8.569 19.111-19.148v-76.558h76.443c10.56 0 19.11-8.57 19.11-19.149-.019-10.578-8.57-19.149-19.13-19.149zm251.94 341.314L448.18 423.228c41.377-44.955 66.801-104.41 66.801-169.834C514.981 113.439 399.705 0 257.494 0S.007 113.439.007 253.393s115.276 253.393 257.487 253.393c61.445 0 117.801-21.253 162.068-56.586l158.624 156.099c7.729 7.614 20.277 7.614 28.006 0a19.276 19.276 0 000-27.585zM257.494 467.8c-120.326 0-217.869-95.993-217.869-214.407S137.168 38.986 257.494 38.986c120.327 0 217.869 95.993 217.869 214.407S377.821 467.8 257.494 467.8z"></path>
  </symbol>
  <symbol xmlns="http://www.w3.org/2000/svg" viewBox="0 0 262.382 262.382" id="icon-linked">
    <path d="M246.392 16.003C236.072 5.684 222.35 0 207.756 0c-14.595 0-28.316 5.684-38.637 16.003l-33.061 33.061c-19.503 19.504-21.138 50.198-4.93 71.595l-10.453 10.452c-9.442-7.174-20.902-11.065-32.965-11.065-14.594 0-28.315 5.683-38.636 16.002l-33.061 33.061C5.694 179.429.01 193.15.011 207.745c0 14.595 5.683 28.316 16.002 38.636 10.32 10.319 24.042 16.003 38.636 16.003 14.595 0 28.315-5.684 38.636-16.003l33.06-33.061c10.32-10.32 16.004-24.041 16.004-38.636 0-12.063-3.893-23.522-11.066-32.965l10.446-10.445c9.442 7.174 20.902 11.065 32.965 11.066 14.595-.001 28.316-5.684 38.637-16.003l33.061-33.062c21.302-21.304 21.302-55.968 0-77.272zM127.35 174.683c0 10.588-4.123 20.542-11.61 28.028l-33.061 33.062c-7.486 7.486-17.44 11.609-28.028 11.609-10.588 0-20.542-4.123-28.028-11.61-7.487-7.486-11.609-17.44-11.609-28.028 0-10.588 4.122-20.542 11.609-28.028l33.06-33.061c7.487-7.487 17.441-11.609 28.029-11.609 8.042 0 15.715 2.384 22.223 6.808L96.98 154.807a7.5 7.5 0 1010.608 10.607l12.954-12.954c4.424 6.508 6.808 14.181 6.808 22.223zm108.435-92.015l-33.059 33.062c-7.487 7.486-17.441 11.609-28.03 11.609-8.042 0-15.716-2.385-22.223-6.809l12.954-12.954a7.5 7.5 0 00-10.607-10.607l-12.946 12.946c-10.44-15.414-8.848-36.604 4.794-50.244l33.061-33.061c7.486-7.487 17.44-11.61 28.029-11.61 10.588 0 20.542 4.123 28.028 11.609 15.453 15.455 15.453 40.604-.001 56.059z"></path>
  </symbol>
   <symbol xmlns="http://www.w3.org/2000/svg" viewBox="0 0 320.001 320.001" id="icon-play">
    <path d="M295.84 146.049l-256-144a16.026 16.026 0 00-15.904.128A15.986 15.986 0 0016 16.001v288a15.986 15.986 0 007.936 13.824A16.144 16.144 0 0032 320.001c2.688 0 5.408-.672 7.84-2.048l256-144c5.024-2.848 8.16-8.16 8.16-13.952s-3.136-11.104-8.16-13.952z"></path>
  </symbol>
  <symbol xmlns="http://www.w3.org/2000/svg" viewBox="0 0 512 512" id="sliders-h">
    <path  d="M496 384H160v-16c0-8.8-7.2-16-16-16h-32c-8.8 0-16 7.2-16 16v16H16c-8.8 0-16 7.2-16 16v32c0 8.8 7.2 16 16 16h80v16c0 8.8 7.2 16 16 16h32c8.8 0 16-7.2 16-16v-16h336c8.8 0 16-7.2 16-16v-32c0-8.8-7.2-16-16-16zm0-160h-80v-16c0-8.8-7.2-16-16-16h-32c-8.8 0-16 7.2-16 16v16H16c-8.8 0-16 7.2-16 16v32c0 8.8 7.2 16 16 16h336v16c0 8.8 7.2 16 16 16h32c8.8 0 16-7.2 16-16v-16h80c8.8 0 16-7.2 16-16v-32c0-8.8-7.2-16-16-16zm0-160H288V48c0-8.8-7.2-16-16-16h-32c-8.8 0-16 7.2-16 16v16H16C7.2 64 0 71.2 0 80v32c0 8.8 7.2 16 16 16h208v16c0 8.8 7.2 16 16 16h32c8.8 0 16-7.2 16-16v-16h208c8.8 0 16-7.2 16-16V80c0-8.8-7.2-16-16-16z"></path>
  </symbol>
  <symbol xmlns="http://www.w3.org/2000/svg" viewBox="0 0 349.078 349.078" id="icon-quotation">
    <path d="M150.299 26.634v58.25c0 7.9-6.404 14.301-14.304 14.301-28.186 0-43.518 28.909-45.643 85.966h45.643c7.9 0 14.304 6.407 14.304 14.304v122.992c0 7.896-6.404 14.298-14.304 14.298H14.301C6.398 336.745 0 330.338 0 322.447V199.455c0-27.352 2.754-52.452 8.183-74.611 5.568-22.721 14.115-42.587 25.396-59.048 11.608-16.917 26.128-30.192 43.16-39.44C93.886 17.052 113.826 12.333 136 12.333c7.895 0 14.299 6.401 14.299 14.301zm184.474 72.552c7.896 0 14.305-6.407 14.305-14.301v-58.25c0-7.9-6.408-14.301-14.305-14.301-22.165 0-42.108 4.72-59.249 14.023-17.035 9.248-31.563 22.523-43.173 39.44-11.277 16.461-19.824 36.328-25.393 59.054-5.426 22.166-8.18 47.266-8.18 74.605v122.992c0 7.896 6.406 14.298 14.304 14.298h121.69c7.896 0 14.299-6.407 14.299-14.298V199.455c0-7.896-6.402-14.304-14.299-14.304H289.78c2.093-57.056 17.201-85.965 44.993-85.965z"></path>
  </symbol>
  <symbol xmlns="http://www.w3.org/2000/svg" xmlns:xlink="http://www.w3.org/1999/xlink" id="icon-heading" >
    <path d="M197.020,9.370 C202.029,10.588 209.000,11.106 209.000,11.106 C202.721,11.743 198.689,12.656 196.587,13.176 C194.878,13.594 193.721,11.905 193.349,11.258 L187.623,11.258 C188.632,11.632 190.002,12.305 191.807,13.508 C196.558,16.672 199.179,20.903 199.497,21.999 C199.497,21.999 196.501,18.468 191.201,16.887 C191.201,16.887 186.940,16.033 189.359,12.959 C189.359,12.959 188.322,11.614 186.079,11.198 C185.963,11.811 185.469,12.272 184.867,12.312 L184.867,13.325 C184.867,13.325 187.055,13.964 186.566,15.911 C186.075,17.860 185.010,18.559 184.751,21.482 C184.751,21.482 183.628,19.746 183.483,17.008 C183.341,14.269 184.608,13.447 184.608,13.447 L184.608,12.304 C183.958,12.212 183.456,11.634 183.456,10.923 C183.456,10.212 183.958,9.632 184.608,9.540 L184.608,8.551 C184.608,8.551 183.341,7.729 183.483,4.990 C183.628,2.251 184.751,0.515 184.751,0.515 C185.010,3.437 186.075,4.138 186.566,6.086 C187.055,8.033 184.867,8.673 184.867,8.673 L184.867,9.533 C185.516,9.578 186.034,10.114 186.093,10.797 C188.327,10.376 189.359,9.038 189.359,9.038 C186.940,5.963 191.201,5.111 191.201,5.111 C196.501,3.530 199.497,-0.001 199.497,-0.001 C199.179,1.095 196.558,5.325 191.807,8.490 C189.950,9.727 188.556,10.402 187.540,10.771 L193.366,10.771 C194.718,8.586 197.020,9.370 197.020,9.370 ZM-0.000,9.850 L182.885,9.850 L182.885,11.842 L-0.000,11.842 L-0.000,9.850 Z"/>
  </symbol>
  <symbol xmlns="http://www.w3.org/2000/svg" viewBox="0 0 24 24" id="icon-send">
    <path d="M24 0l-6 22-8.129-7.239 7.802-8.234-10.458 7.227L0 12 24 0zM9 16.668V24l3.258-4.431L9 16.668z"></path>
  </symbol>
  </defs>
</svg>