<svg xmlns="http://www.w3.org/2000/svg" width="270" height="28"><path data-name="Shape 3 copy" d="M32.643 14.11a1.457 1.457 0 00-1.489-1.76v-1.46s1.816-1.04 1.631-4.53a13.049 13.049 0 00-1.547-5.7c-.336 3.72-1.679 4.61-2.312 7.09s2.228 3.3 2.228 3.3v1.29a1.364 1.364 0 00-1.555 1.42 7.169 7.169 0 01-4.232-2.25c3.125-3.91-2.376-5-2.376-5A24.163 24.163 0 0112.275 0c.41 1.39 3.8 7.05 9.936 11.08 2.33 1.53 4.1 1.86 5.406 3.13h-7.4c-.481-1.27-1.976-3.24-4.183-2.71A120.859 120.859 0 010 14a109.922 109.922 0 0115.476 2.1 4.764 4.764 0 004.721-1.89h7.527c-1.313 0-3.114 1.37-5.513 2.95-6.138 4.03-9.524 9.44-9.935 10.84a24.205 24.205 0 0110.717-6.5s5.5-1.08 2.38-5a7.146 7.146 0 014.208-2.23 1.444 1.444 0 001.573 1.61v1.09s-2.816.82-2.183 3.3 2.015 3.37 2.35 7.09a13.8 13.8 0 001.461-5.69c.185-3.49-1.628-4.54-1.628-4.54v-1.26a1.464 1.464 0 001.489-1.76zm229.547-1.17c-3.8-.53-6.51-1.03-8.23-1.45a3.3 3.3 0 00-3.45 1.45h-6.2a31.123 31.123 0 003.48-1.86c6.14-4.03 9.52-9.55 9.93-10.95a24.48 24.48 0 01-10.71 6.45s-5.51 1.05-2.38 4.97a5.974 5.974 0 01-1.76 1.39h-2.98c-.41-.34-.88-.57-.88-.6v.01a1.524 1.524 0 00-1.23.59H33.736v2.53H237.95a1.764 1.764 0 001.06.4v.01a1.513 1.513 0 001.11-.41h3.37a5.307 5.307 0 011.18 1.04c-3.12 3.92 2.36 5 2.36 5A24.157 24.157 0 01257.74 28c-.41-1.4-3.81-6.81-9.95-10.84-.94-.62-1.78-1.2-2.55-1.69h5.9a4.958 4.958 0 003.38.57c.85-.21 1.74-.39 2.65-.57H270v-2.53h-7.81zm-23.18-2.05v.16s2.74-.82 2.1-3.3-2.05-3.37-2.39-7.09a14.488 14.488 0 00-1.4 5.7c-.18 3.49 1.69 4.53 1.69 4.53zm0 6.08v.16s-1.9 1.05-1.71 4.54a13.409 13.409 0 001.51 5.69c.33-3.72 1.74-4.61 2.37-7.09s-2.17-3.3-2.17-3.3z" fill="#00c5d2" fill-rule="evenodd"/></svg>