<svg xmlns="http://www.w3.org/2000/svg" width="209" height="22" viewBox="0 0 209 22">
  <metadata><?xpacket begin="﻿" id="W5M0MpCehiHzreSzNTczkc9d"?>
<x:xmpmeta xmlns:x="adobe:ns:meta/" x:xmptk="Adobe XMP Core 5.6-c142 79.160924, 2017/07/13-01:06:39        ">
   <rdf:RDF xmlns:rdf="http://www.w3.org/1999/02/22-rdf-syntax-ns#">
      <rdf:Description rdf:about=""/>
   </rdf:RDF>
</x:xmpmeta>
                                                                                                    
                                                                                                    
                                                                                                    
                                                                                                    
                                                                                                    
                                                                                                    
                                                                                                    
                                                                                                    
                                                                                                    
                                                                                                    
                                                                                                    
                                                                                                    
                                                                                                    
                                                                                                    
                                                                                                    
                                                                                                    
                                                                                                    
                                                                                                    
                                                                                                    
                                                                                                    
                           
<?xpacket end="w"?></metadata>
<defs>
    <style>
      .cls-1 {
        fill: #00c5d2;
        fill-rule: evenodd;
      }
    </style>
  </defs>
  <path id="Shape_2_copy" data-name="Shape 2 copy" class="cls-1" d="M565.807,2667.49a20.434,20.434,0,0,1-4.267,2.28h5.826a3.17,3.17,0,0,1,3.654-1.4,90.209,90.209,0,0,0,11.98,1.74,85.814,85.814,0,0,0-12.413,2.07c-1.709.41-2.866-1.27-3.238-1.92h-5.726a20.687,20.687,0,0,1,4.184,2.25c4.751,3.16,7.372,7.39,7.69,8.49a18.71,18.71,0,0,0-8.3-5.11s-4.261-.86-1.842-3.93a5.533,5.533,0,0,0-3.28-1.76,1.343,1.343,0,0,1-1.212,1.11v1.02s2.188,0.63,1.7,2.58-1.556,2.65-1.815,5.57a9.79,9.79,0,0,1-1.268-4.47c-0.142-2.74,1.125-3.56,1.125-3.56v-1.15a1.4,1.4,0,0,1,0-2.76v-0.99s-1.267-.82-1.125-3.56a9.79,9.79,0,0,1,1.268-4.47c0.259,2.92,1.324,3.62,1.815,5.57s-1.7,2.58-1.7,2.58v0.86a1.358,1.358,0,0,1,1.226,1.27,5.563,5.563,0,0,0,3.266-1.76c-2.419-3.08,1.842-3.93,1.842-3.93a18.71,18.71,0,0,0,8.3-5.11C573.179,2660.1,570.558,2664.33,565.807,2667.49ZM374,2668.85H556.885v1.99H374v-1.99Z" transform="translate(-374 -2659)"/>
</svg>
