<svg xmlns="http://www.w3.org/2000/svg" width="270" height="28" viewBox="0 0 270 28">
  <metadata><?xpacket begin="﻿" id="W5M0MpCehiHzreSzNTczkc9d"?>
<x:xmpmeta xmlns:x="adobe:ns:meta/" x:xmptk="Adobe XMP Core 5.6-c142 79.160924, 2017/07/13-01:06:39        ">
   <rdf:RDF xmlns:rdf="http://www.w3.org/1999/02/22-rdf-syntax-ns#">
      <rdf:Description rdf:about=""/>
   </rdf:RDF>
</x:xmpmeta>
                                                                                                    
                                                                                                    
                                                                                                    
                                                                                                    
                                                                                                    
                                                                                                    
                                                                                                    
                                                                                                    
                                                                                                    
                                                                                                    
                                                                                                    
                                                                                                    
                                                                                                    
                                                                                                    
                                                                                                    
                                                                                                    
                                                                                                    
                                                                                                    
                                                                                                    
                                                                                                    
                           
<?xpacket end="w"?></metadata>
<defs>
    <style>
      .cls-1 {
        fill: #00c5d2;
        fill-rule: evenodd;
      }
    </style>
  </defs>
  <path id="Shape_3_copy" data-name="Shape 3 copy" class="cls-1" d="M857.643,3563.11a1.457,1.457,0,0,0-1.489-1.76v-1.46s1.816-1.04,1.631-4.53a13.049,13.049,0,0,0-1.547-5.7c-0.336,3.72-1.679,4.61-2.312,7.09s2.228,3.3,2.228,3.3v1.29a1.364,1.364,0,0,0-1.555,1.42,7.169,7.169,0,0,1-4.232-2.25c3.125-3.91-2.376-5-2.376-5a24.163,24.163,0,0,1-10.716-6.51c0.41,1.39,3.8,7.05,9.936,11.08,2.33,1.53,4.1,1.86,5.406,3.13h-7.4c-0.481-1.27-1.976-3.24-4.183-2.71A120.859,120.859,0,0,1,825,3563a109.922,109.922,0,0,1,15.476,2.1,4.764,4.764,0,0,0,4.721-1.89h7.527c-1.313,0-3.114,1.37-5.513,2.95-6.138,4.03-9.524,9.44-9.935,10.84a24.205,24.205,0,0,1,10.717-6.5s5.5-1.08,2.38-5a7.146,7.146,0,0,1,4.208-2.23,1.444,1.444,0,0,0,1.573,1.61v1.09s-2.816.82-2.183,3.3,2.015,3.37,2.35,7.09a13.8,13.8,0,0,0,1.461-5.69c0.185-3.49-1.628-4.54-1.628-4.54v-1.26A1.464,1.464,0,0,0,857.643,3563.11Zm229.547-1.17c-3.8-.53-6.51-1.03-8.23-1.45a3.3,3.3,0,0,0-3.45,1.45h-6.2a31.123,31.123,0,0,0,3.48-1.86c6.14-4.03,9.52-9.55,9.93-10.95a24.48,24.48,0,0,1-10.71,6.45s-5.51,1.05-2.38,4.97a5.974,5.974,0,0,1-1.76,1.39h-2.98c-0.41-.34-0.88-0.57-0.88-0.6v0.01a1.524,1.524,0,0,0-1.23.59H858.736v2.53H1062.95a1.764,1.764,0,0,0,1.06.4v0.01a1.513,1.513,0,0,0,1.11-.41h3.37a5.307,5.307,0,0,1,1.18,1.04c-3.12,3.92,2.36,5,2.36,5a24.157,24.157,0,0,1,10.71,6.49c-0.41-1.4-3.81-6.81-9.95-10.84-0.94-.62-1.78-1.2-2.55-1.69h5.9a4.958,4.958,0,0,0,3.38.57c0.85-.21,1.74-0.39,2.65-0.57H1095v-2.53h-7.81Zm-23.18-2.05v0.16s2.74-.82,2.1-3.3-2.05-3.37-2.39-7.09a14.488,14.488,0,0,0-1.4,5.7C1062.14,3558.85,1064.01,3559.89,1064.01,3559.89Zm0,6.08v0.16s-1.9,1.05-1.71,4.54a13.409,13.409,0,0,0,1.51,5.69c0.33-3.72,1.74-4.61,2.37-7.09S1064.01,3565.97,1064.01,3565.97Z" transform="translate(-825 -3549)"/>
</svg>
